# xmcd
#
# Track frame offsets:
#	150
#	12046
#	22722
#	32086
#	43296
#	54399
#	66844
#	77077
#	88348
#	99374
#
# Disc length: 1472 seconds
#
# Revision: 0
# Processed by: cddbd v1.5.2PL0 Copyright (c) Steve Scherf et al.
# Submitted via: dBpowerAMP V4.0
#
DISCID=7205be0a
DTITLE=Pasty Cline - Today, Tomorrow and Forever
DYEAR=1960
DGENRE=Country
TTITLE0=Today, Tormorrow and Forever
TTITLE1=Honkey Tonk Merry Go Round
TTITLE2=Love Me Honey Do
TTITLE3=Just Out or Reach
TTITLE4=A Stranger in My Arms
TTITLE5=Fingerprints
TTITLE6=Walking Dreams
TTITLE7=That Wonderful Someone
TTITLE8=I Can't Forget
TTITLE9=Cry Not For Me
EXTD=
EXTT0=
EXTT1=
EXTT2=
EXTT3=
EXTT4=
EXTT5=
EXTT6=
EXTT7=
EXTT8=
EXTT9=
PLAYORDER=
